<svg xmlns="http://www.w3.org/2000/svg" viewBox="0 0 32 32">
  <defs>
    <linearGradient id="d" x1="0" y1="0" x2="0" y2="1">
      <stop offset="0%" stop-color="#34d399"/>
      <stop offset="100%" stop-color="#047857"/>
    </linearGradient>
  </defs>
  <rect width="32" height="32" rx="6" fill="#ffffff"/>
  <path d="M16 3 L16 6.5" stroke="#b45309" stroke-width="1.4" stroke-linecap="round"/>
  <path d="M14.6 5.7 a1.6 1.6 0 1 0 1.8 1.6 a1.2 1.2 0 1 1 -1.8 -1.6 z" fill="#d97706"/>
  <path d="M5 20 a11 11 0 0 1 22 0 z" fill="url(#d)"/>
  <path d="M5 20 a11 11 0 0 1 22 0" fill="none" stroke="#065f46" stroke-width="0.6"/>
  <rect x="4" y="20" width="24" height="4" fill="#cbd5e1"/>
  <rect x="3" y="24" width="26" height="3" fill="#94a3b8"/>
  <path d="M14 13 a2 2 0 0 1 4 0 v4 h-4 z" fill="#065f46" opacity="0.55"/>
</svg>
